<?xml version="1.0" encoding="UTF-8" standalone="no"?>
<!-- Created with Inkscape (http://www.inkscape.org/) -->

<svg
   width="11.271259mm"
   height="15.378547mm"
   viewBox="0 0 11.271259 15.378547"
   version="1.1"
   id="svg1"
   inkscape:version="1.4.3 (0d15f75, 2025-12-25)"
   sodipodi:docname="pilot-portraits.svg"
   xmlns:inkscape="http://www.inkscape.org/namespaces/inkscape"
   xmlns:sodipodi="http://sodipodi.sourceforge.net/DTD/sodipodi-0.dtd"
   xmlns="http://www.w3.org/2000/svg"
   xmlns:svg="http://www.w3.org/2000/svg">
  <sodipodi:namedview
     id="namedview1"
     pagecolor="#505050"
     bordercolor="#eeeeee"
     borderopacity="1"
     inkscape:showpageshadow="0"
     inkscape:pageopacity="0"
     inkscape:pagecheckerboard="0"
     inkscape:deskcolor="#505050"
     inkscape:document-units="mm"
     inkscape:zoom="32"
     inkscape:cx="365.95312"
     inkscape:cy="85.34375"
     inkscape:window-width="3840"
     inkscape:window-height="2054"
     inkscape:window-x="-11"
     inkscape:window-y="-11"
     inkscape:window-maximized="1"
     inkscape:current-layer="g18-5-4-7">
    <inkscape:page
       x="-3.8085763e-23"
       y="0"
       width="11.271258"
       height="15.378547"
       id="page2"
       margin="0"
       bleed="0" />
  </sodipodi:namedview>
  <defs
     id="defs1">
    <linearGradient
       id="swatch4"
       inkscape:swatch="solid">
      <stop
         style="stop-color:#262626;stop-opacity:1;"
         offset="0"
         id="stop4" />
    </linearGradient>
  </defs>
  <g
     inkscape:label="Layer 1"
     inkscape:groupmode="layer"
     id="layer1"
     transform="translate(-13.803049,-13.399231)">
    <g
       id="g18"
       inkscape:label="portrait - 01">
      <g
         id="g21"
         inkscape:label="face - oval">
        <path
           style="fill:#262626;fill-opacity:1;stroke:none;stroke-width:0.25;stroke-linecap:round;stroke-linejoin:round;stroke-dashoffset:1.15654;stroke-opacity:1;paint-order:markers fill stroke"
           d="m 22.774891,28.740321 c -0.568485,-1.395373 -2.524526,-1.441619 -1.316941,-3.916578 0.411732,-0.230299 1.06176,-0.893466 1.369182,-1.295535 0.682558,-0.892696 0.772175,-1.616028 0.969379,-2.600754 1.236062,0.683857 2.057564,-3.986066 0.132809,-2.77089 0.0044,-1.08268 -0.220344,-2.119327 -0.540019,-2.856674 -0.494618,-1.140864 -2.70741,-1.900659 -4.088122,-1.900659 -1.380712,0 -3.265642,0.670615 -4.029729,1.697054 -0.490783,0.659295 -0.553233,1.717708 -0.518831,2.760039 -1.596912,-0.746676 -0.929856,3.169805 0.173633,2.938321 0.178768,1.038426 0.642606,2.294418 1.356567,3.008379 0.226206,0.226206 0.679325,0.613697 0.872586,0.769798 1.001498,1.985035 -0.890574,2.809582 -1.459059,4.204955"
           id="path2-1-0-8"
           sodipodi:nodetypes="ccsccsssccscc" />
        <path
           style="fill:none;fill-opacity:1;stroke:#0d0d0d;stroke-width:0.25;stroke-linecap:round;stroke-linejoin:round;stroke-dashoffset:1.15654;stroke-opacity:1;paint-order:markers fill stroke"
           d="m 23.591328,19.314655 c 0.127305,0.362575 0.163862,0.552218 0.01169,0.818513"
           id="path14" />
        <path
           style="fill:none;fill-opacity:1;stroke:#0d0d0d;stroke-width:0.25;stroke-linecap:round;stroke-linejoin:round;stroke-dashoffset:1.15654;stroke-opacity:1;paint-order:markers fill stroke"
           d="m 15.380992,19.028348 c -0.08411,0.268252 0.0326,0.835156 0.100981,0.954817"
           id="path15"
           sodipodi:nodetypes="cc" />
        <path
           style="fill:none;fill-opacity:1;stroke:#0d0d0d;stroke-width:0.25;stroke-linecap:round;stroke-linejoin:round;stroke-dashoffset:1.15654;stroke-opacity:1;paint-order:markers fill stroke"
           d="m 19.743295,20.225293 c 0.06527,0.433996 -0.38036,1.015791 -0.588578,1.156103 -0.224673,0.151402 0.118633,0.665966 0.637458,0.599071"
           id="path10"
           sodipodi:nodetypes="csc" />
        <path
           style="fill:none;fill-opacity:1;stroke:#0d0d0d;stroke-width:0.25;stroke-linecap:round;stroke-linejoin:round;stroke-dashoffset:1.15654;stroke-opacity:1;paint-order:markers fill stroke"
           d="m 18.500367,24.872174 c 0.573694,0.53627 1.273107,0.487325 1.87662,0.01512"
           id="path9"
           sodipodi:nodetypes="cc" />
      </g>
    </g>
  </g>
</svg>
