<?xml version="1.0" encoding="UTF-8" standalone="no"?>
<!-- Created with Inkscape (http://www.inkscape.org/) -->

<svg
   width="11.271255mm"
   height="15.378546mm"
   viewBox="0 0 11.271255 15.378546"
   version="1.1"
   id="svg1"
   inkscape:version="1.4.3 (0d15f75, 2025-12-25)"
   sodipodi:docname="pilot-portraits.svg"
   xmlns:inkscape="http://www.inkscape.org/namespaces/inkscape"
   xmlns:sodipodi="http://sodipodi.sourceforge.net/DTD/sodipodi-0.dtd"
   xmlns="http://www.w3.org/2000/svg"
   xmlns:svg="http://www.w3.org/2000/svg">
  <sodipodi:namedview
     id="namedview1"
     pagecolor="#505050"
     bordercolor="#eeeeee"
     borderopacity="1"
     inkscape:showpageshadow="0"
     inkscape:pageopacity="0"
     inkscape:pagecheckerboard="0"
     inkscape:deskcolor="#505050"
     inkscape:document-units="mm"
     inkscape:zoom="32"
     inkscape:cx="365.95312"
     inkscape:cy="85.34375"
     inkscape:window-width="3840"
     inkscape:window-height="2054"
     inkscape:window-x="-11"
     inkscape:window-y="-11"
     inkscape:window-maximized="1"
     inkscape:current-layer="g18-5-4-7">
    <inkscape:page
       x="0"
       y="1.2440649e-38"
       width="11.271255"
       height="15.378546"
       id="page2"
       margin="0"
       bleed="0" />
  </sodipodi:namedview>
  <defs
     id="defs1">
    <linearGradient
       id="swatch4"
       inkscape:swatch="solid">
      <stop
         style="stop-color:#262626;stop-opacity:1;"
         offset="0"
         id="stop4" />
    </linearGradient>
  </defs>
  <g
     inkscape:label="Layer 1"
     inkscape:groupmode="layer"
     id="layer1"
     transform="translate(-41.670306,-13.740975)">
    <g
       id="g18-5-4"
       transform="translate(27.867259,0.04827012)"
       inkscape:label="portrait - 02"
       style="display:inline">
      <g
         id="g30"
         inkscape:label="face - round">
        <path
           style="fill:#262626;fill-opacity:1;stroke:none;stroke-width:0.25;stroke-linecap:round;stroke-linejoin:round;stroke-dashoffset:1.15654;stroke-opacity:1;paint-order:markers fill stroke"
           d="m 22.774891,29.033794 c -0.568485,-1.395373 -2.499721,-1.921176 -1.432696,-4.379599 0.116655,-0.072 0.303047,-0.184695 0.415611,-0.274551 0.225129,-0.179711 0.445658,-0.384346 0.671864,-0.610552 0.68335,-0.68335 1.169637,-1.563439 1.366841,-2.548165 1.236062,0.683857 2.057564,-3.986066 0.132809,-2.77089 0.0044,-1.08268 -0.220344,-2.119327 -0.540019,-2.856674 -0.494618,-1.140864 -2.70741,-1.900659 -4.088122,-1.900659 -1.380712,0 -3.265642,0.670615 -4.029729,1.697054 -0.490783,0.659295 -0.553233,1.717708 -0.518831,2.760039 -1.596912,-0.746676 -0.929856,3.169805 0.173633,2.938321 0.178768,1.038426 0.677685,1.967013 1.391646,2.680974 0.226206,0.226206 0.528491,0.478081 0.721752,0.634182 1.042839,2.439788 -0.774819,3.272603 -1.343304,4.667976"
           id="path2-1-0-82"
           sodipodi:nodetypes="ccssccsssccscc" />
        <path
           style="fill:none;fill-opacity:1;stroke:#0d0d0d;stroke-width:0.25;stroke-linecap:round;stroke-linejoin:round;stroke-dashoffset:1.15654;stroke-opacity:1;paint-order:markers fill stroke"
           d="m 17.726651,24.648932 c 0.806282,0.511465 1.794238,0.751908 2.934954,0.02339"
           id="path9-8-1"
           sodipodi:nodetypes="cc" />
        <path
           style="fill:none;fill-opacity:1;stroke:#0d0d0d;stroke-width:0.25;stroke-linecap:round;stroke-linejoin:round;stroke-dashoffset:1.15654;stroke-opacity:1;paint-order:markers fill stroke"
           d="m 14.686461,19.235054 c -0.08411,0.268252 0.107016,0.76901 0.175395,0.888671"
           id="path15-7-5"
           sodipodi:nodetypes="cc" />
        <path
           style="fill:none;fill-opacity:1;stroke:#0d0d0d;stroke-width:0.25;stroke-linecap:round;stroke-linejoin:round;stroke-dashoffset:1.15654;stroke-opacity:1;paint-order:markers fill stroke"
           d="m 24.227982,19.422142 c 0.127305,0.362575 0.163862,0.552218 0.01169,0.818513"
           id="path14-8-9" />
        <path
           style="fill:none;fill-opacity:1;stroke:#0d0d0d;stroke-width:0.25;stroke-linecap:round;stroke-linejoin:round;stroke-dashoffset:1.15654;stroke-opacity:1;paint-order:markers fill stroke"
           d="m 19.433835,20.357585 c -0.349018,0.694359 -0.765527,1.48382 0.42095,1.052374"
           id="path10-8-8" />
      </g>
    </g>
  </g>
</svg>
