<?xml version="1.0" encoding="UTF-8" standalone="no"?>
<!-- Created with Inkscape (http://www.inkscape.org/) -->

<svg
   width="20mm"
   height="20mm"
   viewBox="0 0 20 20"
   version="1.1"
   id="svg1"
   inkscape:version="1.4.3 (0d15f75, 2025-12-25)"
   sodipodi:docname="pilot-portraits.svg"
   inkscape:export-batch-name=""
   inkscape:export-batch-path="..\sonar-lark\assets\portraits"
   xml:space="preserve"
   xmlns:inkscape="http://www.inkscape.org/namespaces/inkscape"
   xmlns:sodipodi="http://sodipodi.sourceforge.net/DTD/sodipodi-0.dtd"
   xmlns="http://www.w3.org/2000/svg"
   xmlns:svg="http://www.w3.org/2000/svg"><sodipodi:namedview
     id="namedview1"
     pagecolor="#505050"
     bordercolor="#eeeeee"
     borderopacity="1"
     inkscape:showpageshadow="0"
     inkscape:pageopacity="0"
     inkscape:pagecheckerboard="0"
     inkscape:deskcolor="#505050"
     inkscape:document-units="mm"
     inkscape:zoom="16"
     inkscape:cx="32.34375"
     inkscape:cy="28.0625"
     inkscape:window-width="3840"
     inkscape:window-height="2054"
     inkscape:window-x="-11"
     inkscape:window-y="-11"
     inkscape:window-maximized="1"
     inkscape:current-layer="layer12"
     showguides="true"><sodipodi:guide
       position="59.597394,285.62292"
       orientation="0,-1"
       id="guide71"
       inkscape:locked="false" /></sodipodi:namedview><defs
     id="defs1"><linearGradient
       id="swatch4"
       inkscape:swatch="solid"><stop
         style="stop-color:#262626;stop-opacity:1;"
         offset="0"
         id="stop4" /></linearGradient></defs><g
     inkscape:label="background"
     inkscape:groupmode="layer"
     id="layer1"
     style="display:none"><rect
       style="display:inline;fill:#808080;fill-opacity:1;stroke:none;stroke-width:0.25;stroke-linecap:round;stroke-linejoin:round;stroke-dashoffset:1.15654;paint-order:markers fill stroke"
       id="rect1"
       width="20"
       height="20"
       x="9.5712786"
       y="11.560325"
       rx="1.5"
       ry="1.5"
       inkscape:label="background"
       transform="translate(-9.571278,-11.560325)" /></g><g
     inkscape:groupmode="layer"
     id="layer16"
     inkscape:label="hair_back_beanie"
     style="display:none"><path
       id="path6"
       style="baseline-shift:baseline;display:inline;overflow:visible;vector-effect:none;fill:#000000;fill-opacity:1;stroke-linecap:round;stroke-linejoin:round;stroke-dashoffset:1.15654;paint-order:markers fill stroke;enable-background:accumulate;stop-color:#000000;stop-opacity:1"
       d="m 9.6392049,0.37723796 a 0.10001,0.10001 0 0 0 -0.073897,0.0273885 c -0.01835,0.01669 -0.011111,0.0400344 -0.025321,0.0583944 l -0.00568,-0.003617 -0.0062,0.0294556 c -0.05244,0.07909 -0.101415,0.16287976 -0.107487,0.24391276 -0.00814,0.10817732 0.00202,0.20741729 -0.00362,0.28525388 C 8.9982744,1.172682 8.6673076,1.526213 8.6671748,1.980758 c 0,0.595164 0.4848735,1.0800375 1.0800375,1.0800375 0.5951657,0 1.0800377,-0.4848735 1.0800377,-1.0800375 0,-0.595165 -0.484872,-1.08003838 -1.0800377,-1.08003738 -0.03374,5.3e-5 -0.066206,0.008666 -0.099736,0.0118856 L 9.7317057,0.50022786 A 0.10001,0.10001 0 0 0 9.6392049,0.37723796 Z M 9.4247477,1.0102743 a 0.10001,0.10001 0 0 0 0.00413,0.00362 c -0.0032,0.00115 -0.00663,0.00245 -0.00982,0.00362 z m 0.322461,0.089917 c 0.4870773,0 0.8805663,0.3934894 0.8805663,0.8805664 0,0.487076 -0.393489,0.8790162 -0.8805663,0.8790162 -0.487076,0 -0.8790162,-0.3919402 -0.8790162,-0.8790162 1.19e-4,-0.406427 0.2768237,-0.7594259 0.6717937,-0.8552449 a 0.10001,0.10001 0 0 0 0.00207,-0.00207 0.10001,0.10001 0 0 0 0.00207,0.00207 c 0.06658,-0.01592 0.1346334,-0.025211 0.2030884,-0.025322 z m 0,-1e-7 c -0.068455,1.1e-4 -0.1365084,0.0094 -0.2030884,0.025322 a 0.10001,0.10001 0 0 1 -0.00207,-0.00207 0.10001,0.10001 0 0 1 -0.00207,0.00207 c -0.39497,0.095819 -0.6716747,0.4488179 -0.6717937,0.8552449 0,0.487076 0.3919402,0.8790162 0.8790162,0.8790162 0.4870772,0 0.8805662,-0.3919402 0.8805662,-0.8790162 0,-0.487077 -0.393489,-0.8805664 -0.8805662,-0.8805664 z M 10.09034,0.49454346 a 0.1,0.1 0 0 0 -0.01292,0.00155 l -5.17e-4,5.1676e-4 c -0.06345,0.01168 -0.1049901,0.0492258 -0.1483111,0.0837158 a 0.1,0.1 0 0 0 -0.042891,-0.0800985 0.1,0.1 0 0 0 -0.125057,0.0666626 c -0.0031,0.0102 -0.00672,0.0206259 -0.00982,0.0310059 a 0.1,0.1 0 0 0 -0.031523,-0.0366903 l -0.07183,0.35139974 c 0.03353,-0.00322 0.065996,-0.0118326 0.099736,-0.0118856 0.5951651,-1e-6 1.0800371,0.48487244 1.0800371,1.08003744 0,0.02955 -0.0013,0.058889 -0.0036,0.08785 0.05958,-0.00324 0.119391,-0.00649 0.179317,-0.00982 a 0.1,0.1 0 0 0 0.09353,-0.10542 0.1,0.1 0 0 0 -0.04858,-0.042891 c 0.03821,-0.0082 0.06613,0.00203 0.10542,-0.015503 a 0.1,0.1 0 0 0 0.05064,-0.1328085 0.1,0.1 0 0 0 -0.132808,-0.05116 c -0.06704,0.02985 -0.168793,0.02912 -0.265617,0.03514 0.129472,-0.04898 0.262305,-0.091215 0.392741,-0.1736328 a 0.1,0.1 0 0 0 0.03101,-0.1369425 0.1,0.1 0 0 0 -0.136426,-0.031006 c -0.03969,0.02508 -0.09489,0.039331 -0.14056,0.060461 0.0058,-0.0074 0.01191,-0.00969 0.01757,-0.01757 a 0.1,0.1 0 0 0 -0.0217,-0.1405599 0.1,0.1 0 0 0 -0.04496,0.00775 0.1,0.1 0 0 0 0.0155,-0.058394 0.1,0.1 0 0 0 -0.118855,-0.03359 c 0.01408,-0.01284 0.02903,-0.02187 0.04289,-0.03514 a 0.1,0.1 0 0 0 0.0041,-0.1405599 0.1,0.1 0 0 0 -0.142627,-0.00362 c -0.03964,0.03794 -0.08835,0.073122 -0.131258,0.1090372 0.0292,-0.04932 0.06583,-0.069447 0.07648,-0.1364257 a 0.1,0.1 0 0 0 -0.08423,-0.11317138 0.1,0.1 0 0 0 -0.03307,0.0217041 0.1,0.1 0 0 0 0,-0.13125813 0.1,0.1 0 0 0 -0.138493,-0.009819 0.1,0.1 0 0 0 -0.02739,-0.13849284 0.1,0.1 0 0 0 -0.138493,0.0253215 c -0.0013,0.0019 -0.0028,0.003784 -0.0041,0.005684 a 0.1,0.1 0 0 0 -0.09353,-0.005684 0.1,0.1 0 0 0 0.06408,-0.0940511 0.1,0.1 0 0 0 -0.10387,-0.0816488 z m -0.771529,5.1676e-4 a 0.1,0.1 0 0 0 -0.091467,0.0816488 c -0.0077,0.03982 0.00765,0.0622187 0.00775,0.0992187 a 0.1,0.1 0 0 0 -0.07183,0.0449585 c -0.01031,0.04143 0.013283,0.069335 0.015503,0.10748698 A 0.1,0.1 0 0 0 9.151378,0.8071859 c 0.0036,-0.06311 0.00582,-0.1268135 0.00982,-0.1896525 A 0.1,0.1 0 0 0 9.0676636,0.51211344 0.1,0.1 0 0 0 8.9617269,0.60564779 c -0.0039,0.06281 -0.00785,0.12489445 -0.011369,0.18758545 C 8.9055881,0.72258324 8.868933,0.64966533 8.821167,0.58032633 A 0.1,0.1 0 0 0 8.6826742,0.55500488 0.1,0.1 0 0 0 8.6573527,0.69349772 c 0.02817,0.04089 0.050851,0.0875141 0.078031,0.12919108 a 0.1,0.1 0 0 0 -0.011886,-0.004134 0.1,0.1 0 0 0 -0.050643,0.13280843 c 0.03066,0.06716 0.071139,0.10486257 0.1095541,0.15657957 -0.0035,0.0032 -0.023651,0.021037 -0.023771,0.021187 -0.04692,-0.03798 -0.082579,-0.076331 -0.1539958,-0.1054199 a 0.1,0.1 0 0 0 -0.1307413,0.054777 0.1,0.1 0 0 0 0.05426,0.1307414 c 0.03152,0.01284 0.070904,0.047027 0.1038696,0.072347 a 0.1,0.1 0 0 0 -0.0062,0.013953 0.1,0.1 0 0 0 -0.073897,-0.054777 0.1,0.1 0 0 0 -0.084233,0.1131714 c 0.014781,0.0991 0.080972,0.1502936 0.1426269,0.2010213 C 8.4811352,1.541284 8.3646409,1.550494 8.3018189,1.527555 a 0.1,0.1 0 0 0 -0.127124,0.058911 0.1,0.1 0 0 0 0.058911,0.1286743 c 0.130211,0.04751 0.2592371,0.026867 0.3570841,0.037207 0.01926,0.002 0.023174,0.022402 0.039274,0.025322 H 8.4656331 a 0.1,0.1 0 0 0 -0.099219,0.099736 0.1,0.1 0 0 0 0.099219,0.099219 h 0.2015381 c 0.00213,-0.4525541 0.3323699,-0.8044111 0.7498251,-0.9585978 0.00564,-0.0778366 -0.00453,-0.17707656 0.00362,-0.28525388 0.00127,-0.0168939 0.00415,-0.0340937 0.00879,-0.0511597 -0.00352,-0.023707 -0.00824,-0.0496538 -0.00465,-0.0682129 a 0.1,0.1 0 0 0 -0.080098,-0.11678874 0.1,0.1 0 0 0 -0.025838,-0.00155 z m 0.1059367,0.51521408 -0.00568,0.00723 c 0.00319,-0.00117 0.00662,-0.00247 0.00982,-0.00362 a 0.10001,0.10001 0 0 1 -0.00413,-0.00362 z M 8.6656209,1.326534 a 0.1,0.1 0 0 0 0.056327,0.01757 c 0.0074,0.0055 0.0113,0.00787 0.01912,0.013436 -0.01674,0.0028 -0.033133,0.00413 -0.033073,0.00413 7.9e-5,2.7e-5 0.00861,0.00312 0.019637,0.00982 0.01034,0.0062 0.028531,0.020746 0.042891,0.031006 A 0.1,0.1 0 0 0 8.7276319,1.400946 C 8.7058119,1.37891 8.6722999,1.364316 8.6656199,1.326532 Z m -0.05116,0.2315104 c 5.968e-4,6.102e-4 9.548e-4,9.399e-4 0.00155,0.00155 0,0 -5.168e-4,0 -5.168e-4,0 0,0 -5.168e-4,-5.167e-4 -5.168e-4,-5.167e-4 0,0 -5.167e-4,-5.168e-4 -5.167e-4,-5.168e-4 z"
       inkscape:label="hair_back_beanie" /></g><g
     inkscape:groupmode="layer"
     id="layer8"
     inkscape:label="hair_back_long_sweep"
     style="display:none"><path
       style="display:inline;fill:#000000;fill-opacity:1;stroke:none;stroke-width:0.2;stroke-linecap:round;stroke-linejoin:round;stroke-dasharray:none;stroke-dashoffset:1.15654;stroke-opacity:1;paint-order:markers fill stroke"
       d="m 39.852864,29.352213 c -0.428889,0.0547 -1.00734,-0.281123 -1.273307,-0.628389 0.238697,-1.455208 2.025346,-1.848228 2.199349,-3.45612 0.461892,-4.268131 -0.897869,-6.254815 2.199349,-10.31875 1.522338,-1.997496 3.554312,-1.959439 5.357813,-2.017447 2.38681,-0.07677 3.872393,0.837339 4.944401,2.513541 1.30347,2.038119 0.409021,5.733871 0.694532,8.516276 0.469144,4.57197 0.897513,3.898063 2.116666,5.390885 -0.48691,0.48691 -1.893888,0.470826 -2.199349,0.165365"
       id="path36"
       inkscape:label="hair_back_long_sweep"
       sodipodi:nodetypes="ccssssscc"
       inkscape:export-filename="hair-back-long.svg"
       inkscape:export-xdpi="300"
       inkscape:export-ydpi="300"
       transform="translate(-37.570836,-11.702364)" /></g><g
     inkscape:groupmode="layer"
     id="layer24"
     inkscape:label="hair_back_short_crop"
     style="display:none"><path
       style="display:inline;fill:#000000;fill-opacity:1;stroke:#b2b2b2;stroke-width:0.25;stroke-linecap:round;stroke-linejoin:round;stroke-dashoffset:1.15654;stroke-opacity:1;paint-order:markers fill stroke"
       d="m 14.842548,17.956495 c 0.01987,-0.518113 -0.276983,-1.340229 -0.276983,-1.860351 0,-0.118401 -0.07924,-1.307413 -0.04134,-1.364258 0.0068,-0.01022 0.239778,0.194565 0.239778,0.198438 0,0.01654 -0.0036,-0.03347 0,-0.04961 0.02117,-0.09528 0.06998,-0.228953 0.107487,-0.314192 0.09737,-0.221308 0.240755,-0.440168 0.355534,-0.669727 0.03869,-0.07737 -0.0064,0.214829 0.132292,0.115755 0.09984,-0.07131 0.180686,-0.150707 0.281119,-0.223242 0.329687,-0.238106 0.566463,-0.517382 0.909506,-0.768945 0.187467,-0.137477 0.0779,0.262243 0.181901,0.223242 0.426156,-0.159809 0.908409,-0.218615 1.322916,-0.405143 0.0149,-0.0067 0.104257,-0.08843 0.132292,-0.07441 0.03827,0.01913 0.03361,0.174173 0.05788,0.198437 0.05758,0.05758 0.747863,-0.005 0.967382,-0.01654 0.164325,-0.0086 0.549471,-0.217225 0.686263,-0.148828 0.169704,0.08485 0.04284,0.125726 0.297657,0.165364 0.279937,0.04355 1.37455,-0.135632 1.637109,0.07441 0.03216,0.02573 -0.05625,0.297591 -0.03307,0.355534 0.0173,0.04329 0.936093,-0.11828 0.983919,-0.09095 0.201451,0.115114 0.30828,0.490181 0.479558,0.661458 0.04175,0.04175 0.131122,0.153951 0.190169,0.173633 0.09211,0.0307 0.185923,-0.246149 0.239779,-0.165365 0.15481,0.232215 0.355115,1.471326 0.405143,1.521354 0.02897,0.02897 0.243467,-0.260895 0.264583,-0.239778 0.0013,0.0012 -0.09979,0.85389 -0.165364,1.11621 -0.02601,0.103995 -0.19398,0.877728 -0.181902,0.926042 0.0085,0.03409 0.220909,-0.19377 0.214974,-0.181901 -0.13648,0.272958 -0.19114,0.599979 -0.347265,0.818555"
       id="path17-8"
       sodipodi:nodetypes="cscsccccsssccccssscsssssccccc"
       inkscape:label="hair_back_short_crop"
       inkscape:export-filename="hair-back-shortcrop.svg"
       inkscape:export-xdpi="300"
       inkscape:export-ydpi="300"
       transform="translate(-9.571278,-11.560325)" /></g><g
     inkscape:groupmode="layer"
     id="layer18"
     inkscape:label="face_round"
     style="display:none"><path
       style="display:inline;fill:#000000;fill-opacity:1;stroke:none;stroke-width:0.25;stroke-linecap:round;stroke-linejoin:round;stroke-dashoffset:1.15654;stroke-opacity:1;paint-order:markers fill stroke"
       d="m 22.774891,29.033794 c -0.568485,-1.395373 -2.499721,-1.921176 -1.432696,-4.379599 0.116655,-0.072 0.303047,-0.184695 0.415611,-0.274551 0.225129,-0.179711 0.445658,-0.384346 0.671864,-0.610552 0.68335,-0.68335 1.169637,-1.563439 1.366841,-2.548165 1.236062,0.683857 2.057564,-3.986066 0.132809,-2.77089 0.0044,-1.08268 -0.220344,-2.119327 -0.540019,-2.856674 -0.494618,-1.140864 -2.70741,-1.900659 -4.088122,-1.900659 -1.380712,0 -3.265642,0.670615 -4.029729,1.697054 -0.490783,0.659295 -0.553233,1.717708 -0.518831,2.760039 -1.596912,-0.746676 -0.929856,3.169805 0.173633,2.938321 0.178768,1.038426 0.677685,1.967013 1.391646,2.680974 0.226206,0.226206 0.528491,0.478081 0.721752,0.634182 1.042839,2.439788 -0.774819,3.272603 -1.343304,4.667976"
       id="path2-1-0-82"
       sodipodi:nodetypes="ccssccsssccscc"
       transform="translate(-9.571278,-11.560325)"
       inkscape:label="face_round" /><path
       style="display:inline;fill:none;fill-opacity:1;stroke:#ffffff;stroke-width:0.25;stroke-linecap:round;stroke-linejoin:round;stroke-dashoffset:1.15654;stroke-opacity:1;paint-order:markers fill stroke"
       d="m 17.726651,24.648932 c 0.806282,0.511465 1.794238,0.751908 2.934954,0.02339"
       id="path9-8-1"
       sodipodi:nodetypes="cc"
       transform="translate(-9.571278,-11.560325)"
       inkscape:label="chin_round" /><path
       style="display:inline;fill:none;fill-opacity:1;stroke:#ffffff;stroke-width:0.25;stroke-linecap:round;stroke-linejoin:round;stroke-dashoffset:1.15654;stroke-opacity:1;paint-order:markers fill stroke"
       d="m 14.686461,19.235054 c -0.08411,0.268252 0.107016,0.76901 0.175395,0.888671"
       id="path15-7-5"
       sodipodi:nodetypes="cc"
       transform="translate(-9.571278,-11.560325)"
       inkscape:label="ear_left_round" /><path
       style="display:inline;fill:none;fill-opacity:1;stroke:#ffffff;stroke-width:0.25;stroke-linecap:round;stroke-linejoin:round;stroke-dashoffset:1.15654;stroke-opacity:1;paint-order:markers fill stroke"
       d="m 24.227982,19.422142 c 0.127305,0.362575 0.163862,0.552218 0.01169,0.818513"
       id="path14-8-9"
       transform="translate(-9.571278,-11.560325)"
       inkscape:label="ear_right_round" /><path
       style="display:inline;fill:none;fill-opacity:1;stroke:#ffffff;stroke-width:0.25;stroke-linecap:round;stroke-linejoin:round;stroke-dashoffset:1.15654;stroke-opacity:1;paint-order:markers fill stroke"
       d="m 19.433835,20.357585 c -0.349018,0.694359 -0.765527,1.48382 0.42095,1.052374"
       id="path10-8-8"
       transform="translate(-9.571278,-11.560325)"
       inkscape:label="nose_round" /></g><g
     inkscape:groupmode="layer"
     id="layer9"
     inkscape:label="face_square"
     style="display:none"><path
       style="display:inline;fill:#000000;fill-opacity:1;stroke:none;stroke-width:0.25;stroke-linecap:round;stroke-linejoin:round;stroke-dashoffset:1.15654;stroke-opacity:1;paint-order:markers fill stroke"
       d="m 50.774445,29.181282 c -0.568485,-1.395373 -2.476335,-1.348217 -1.40931,-3.80664 0.601316,-0.272216 1.065052,-0.532243 1.449959,-0.908489 0.68335,-0.68335 0.783767,-2.113012 0.980971,-3.097738 1.318744,1.270901 2.413098,-3.96953 0.132809,-2.77089 0.0044,-1.08268 -0.220344,-2.119327 -0.540019,-2.856674 -0.494618,-1.140864 -2.70741,-1.900659 -4.088122,-1.900659 -1.380712,0 -3.265642,0.670615 -4.029729,1.697054 -0.490783,0.659295 -0.553233,1.717708 -0.518831,2.760039 -1.712667,-0.878968 -1.392877,3.450925 0.173633,2.938321 0.178768,1.038426 0.432131,2.434735 1.146092,3.148696 0.226206,0.226206 0.797431,0.583318 0.990692,0.739419 1.042839,2.439788 -0.798205,2.699644 -1.36669,4.095017"
       id="path2-1-7"
       sodipodi:nodetypes="ccsccsssccscc"
       transform="translate(-37.570836,-11.702364)"
       inkscape:label="face_square" /><path
       style="display:inline;fill:none;fill-opacity:1;stroke:#ffffff;stroke-width:0.25;stroke-linecap:round;stroke-linejoin:round;stroke-dashoffset:1.15654;stroke-opacity:1;paint-order:markers fill stroke"
       d="m 45.726205,24.79642 c 0.403141,0.255733 0.875087,0.490482 1.36545,0.757322 0.51375,-0.224268 0.999146,-0.369673 1.569504,-0.733932"
       id="path9-2"
       sodipodi:nodetypes="ccc"
       transform="translate(-37.570836,-11.702364)"
       inkscape:label="chin_square" /><path
       style="display:inline;fill:none;fill-opacity:1;stroke:#ffffff;stroke-width:0.25;stroke-linecap:round;stroke-linejoin:round;stroke-dashoffset:1.15654;stroke-opacity:1;paint-order:markers fill stroke"
       d="m 47.416853,20.149539 c -0.90299,1.347549 -0.517481,1.897232 0.528437,1.614614"
       id="path10-4"
       sodipodi:nodetypes="cc"
       transform="translate(-37.570836,-11.702364)"
       inkscape:label="nose_square" /><path
       style="display:inline;fill:none;fill-opacity:1;stroke:#ffffff;stroke-width:0.25;stroke-linecap:round;stroke-linejoin:round;stroke-dashoffset:1.15654;stroke-opacity:1;paint-order:markers fill stroke"
       d="m 52.244072,19.263706 c 0.127305,0.362575 0.0233,1.246749 -0.128869,1.513044"
       id="path14-6"
       sodipodi:nodetypes="cc"
       transform="translate(-37.570836,-11.702364)"
       inkscape:label="ear_right_square" /><path
       style="display:inline;fill:none;fill-opacity:1;stroke:#ffffff;stroke-width:0.25;stroke-linecap:round;stroke-linejoin:round;stroke-dashoffset:1.15654;stroke-opacity:1;paint-order:markers fill stroke"
       d="m 42.652942,18.894716 c -0.125451,0.293057 0.09875,1.579297 0.167127,1.698958"
       id="path15-5"
       sodipodi:nodetypes="cc"
       transform="translate(-37.570836,-11.702364)"
       inkscape:label="ear_left_square" /></g><g
     inkscape:groupmode="layer"
     id="layer17"
     inkscape:label="face_angular"
     style="display:none"><path
       style="display:inline;fill:#000000;fill-opacity:1;stroke:none;stroke-width:0.25;stroke-linecap:round;stroke-linejoin:round;stroke-dashoffset:1.15654;stroke-opacity:1;paint-order:markers fill stroke"
       d="m 22.774891,29.033794 c -0.568485,-1.395373 -2.184009,-1.874404 -1.432696,-4.379599 0.215614,-1.18294 0.85133,-1.072999 1.435916,-1.52435 0.570097,-0.440165 0.79781,-0.87742 1.0184,-1.908918 1.236062,0.683857 2.057564,-3.986066 0.132809,-2.77089 0.0044,-1.08268 -0.220344,-2.119327 -0.540019,-2.856674 -0.494618,-1.140864 -2.70741,-1.900659 -4.088122,-1.900659 -1.380712,0 -3.265642,0.670615 -4.029729,1.697054 -0.490783,0.659295 -0.553233,1.717708 -0.518831,2.760039 -1.596912,-0.746676 -0.929856,3.169805 0.173633,2.938321 0.178768,1.038426 0.326135,1.427404 0.774751,1.682668 0.719343,0.409308 1.206932,1.000985 1.338647,1.632488 0.968425,2.605153 -0.774819,3.272603 -1.343304,4.667976"
       id="path2-1-0-82-7"
       sodipodi:nodetypes="ccsccsssccscc"
       transform="translate(-9.571278,-11.560209)"
       inkscape:label="face_angular" /><path
       style="display:inline;fill:none;fill-opacity:1;stroke:#ffffff;stroke-width:0.25;stroke-linecap:round;stroke-linejoin:round;stroke-dashoffset:1.15654;stroke-opacity:1;paint-order:markers fill stroke"
       d="m 17.731071,24.279719 c 1.387731,1.223201 1.502457,1.482065 3.114055,-0.176795"
       id="path9-8-1-5"
       sodipodi:nodetypes="cc"
       transform="translate(-9.571278,-11.560209)"
       inkscape:label="chin_angular" /><path
       style="display:inline;fill:none;fill-opacity:1;stroke:#ffffff;stroke-width:0.25;stroke-linecap:round;stroke-linejoin:round;stroke-dashoffset:1.15654;stroke-opacity:1;paint-order:markers fill stroke"
       d="m 14.686461,19.235054 c -0.08411,0.268252 0.107016,0.76901 0.175395,0.888671"
       id="path15-7-5-3"
       sodipodi:nodetypes="cc"
       transform="translate(-9.571278,-11.560209)"
       inkscape:label="ear_right_angular" /><path
       style="display:inline;fill:none;fill-opacity:1;stroke:#ffffff;stroke-width:0.25;stroke-linecap:round;stroke-linejoin:round;stroke-dashoffset:1.15654;stroke-opacity:1;paint-order:markers fill stroke"
       d="m 24.227982,19.422142 c 0.127305,0.362575 0.163862,0.552218 0.01169,0.818513"
       id="path14-8-9-4"
       transform="translate(-9.571278,-11.560209)"
       inkscape:label="ear_left_angular" /><path
       style="display:inline;fill:none;fill-opacity:1;stroke:#ffffff;stroke-width:0.25;stroke-linecap:round;stroke-linejoin:round;stroke-dashoffset:1.15654;stroke-opacity:1;paint-order:markers fill stroke"
       d="m 19.416295,20.497902 c -0.313938,0.267562 -0.747987,0.764697 0.43849,0.912057"
       id="path10-8-8-3"
       sodipodi:nodetypes="cc"
       transform="translate(-9.571278,-11.560209)"
       inkscape:label="nose_angular" /><path
       style="display:inline;fill:none;fill-opacity:1;stroke:#ffffff;stroke-width:0.2;stroke-linecap:round;stroke-linejoin:round;stroke-dasharray:none;stroke-dashoffset:1.15654;stroke-opacity:1;paint-order:markers fill stroke"
       d="m 22.626297,21.104627 c -0.485067,0.154951 -0.848398,0.412538 -0.9778,0.555705"
       id="path71"
       sodipodi:nodetypes="cc"
       transform="translate(-9.571278,-11.560209)"
       inkscape:label="cheekbone_right_angular" /><path
       style="display:inline;fill:none;fill-opacity:1;stroke:#ffffff;stroke-width:0.2;stroke-linecap:round;stroke-linejoin:round;stroke-dasharray:none;stroke-dashoffset:1.15654;stroke-opacity:1;paint-order:markers fill stroke"
       d="m 16.382153,21.393965 c 0.485067,0.154951 0.848398,0.412538 0.9778,0.555705"
       id="path71-2"
       sodipodi:nodetypes="cc"
       transform="translate(-9.571278,-11.560209)"
       inkscape:label="cheekbone_left_angular" /></g><g
     inkscape:groupmode="layer"
     id="layer25"
     inkscape:label="face_oval"
     style="display:none"><path
       style="display:inline;fill:#000000;fill-opacity:1;stroke:none;stroke-width:0.25;stroke-linecap:round;stroke-linejoin:round;stroke-dashoffset:1.15654;stroke-opacity:1;paint-order:markers fill stroke"
       d="m 22.774891,28.740321 c -0.568485,-1.395373 -2.524526,-1.441619 -1.316941,-3.916578 0.411732,-0.230299 1.06176,-0.893466 1.369182,-1.295535 0.682558,-0.892696 0.98265,-1.440632 1.179854,-2.425358 1.236062,0.683857 2.057564,-3.986066 0.132809,-2.77089 0.0044,-1.08268 -0.430819,-2.294723 -0.750494,-3.03207 -0.494618,-1.140864 -2.70741,-1.900659 -4.088122,-1.900659 -1.380712,0 -3.265642,0.670615 -4.029729,1.697054 -0.490783,0.659295 -0.716936,1.858025 -0.682534,2.900356 -1.596912,-0.746676 -0.929856,3.169805 0.173633,2.938321 0.178768,1.038426 0.806309,2.154101 1.52027,2.868062 0.226206,0.226206 0.679325,0.613697 0.872586,0.769798 1.001498,1.985035 -0.890574,2.809582 -1.459059,4.204955"
       id="path2-1-0-8"
       sodipodi:nodetypes="ccsccsssccscc"
       transform="translate(-9.571278,-11.560325)"
       inkscape:label="face_oval" /><path
       style="display:inline;fill:none;fill-opacity:1;stroke:#ffffff;stroke-width:0.25;stroke-linecap:round;stroke-linejoin:round;stroke-dashoffset:1.15654;stroke-opacity:1;paint-order:markers fill stroke"
       d="m 14.756712,7.7777161 c 0.127305,0.362575 0.163862,0.552218 0.01169,0.818513"
       id="path14"
       inkscape:label="ear_right_oval" /><path
       style="display:inline;fill:none;fill-opacity:1;stroke:#ffffff;stroke-width:0.25;stroke-linecap:round;stroke-linejoin:round;stroke-dashoffset:1.15654;stroke-opacity:1;paint-order:markers fill stroke"
       d="m 4.9210428,7.479716 c -0.08411,0.268252 0.0326,0.835156 0.100981,0.954817"
       id="path15"
       sodipodi:nodetypes="cc"
       inkscape:label="ear_left_oval" /><path
       style="display:inline;fill:none;fill-opacity:1;stroke:#ffffff;stroke-width:0.25;stroke-linecap:round;stroke-linejoin:round;stroke-dashoffset:1.15654;stroke-opacity:1;paint-order:markers fill stroke"
       d="m 19.743295,20.225293 c 0.06527,0.433996 -0.38036,1.015791 -0.588578,1.156103 -0.224673,0.151402 0.118633,0.665966 0.637458,0.599071"
       id="path10"
       sodipodi:nodetypes="csc"
       transform="translate(-9.571278,-11.560325)"
       inkscape:label="nose_oval" /><path
       style="display:inline;fill:none;fill-opacity:1;stroke:#ffffff;stroke-width:0.25;stroke-linecap:round;stroke-linejoin:round;stroke-dashoffset:1.15654;stroke-opacity:1;paint-order:markers fill stroke"
       d="m 18.500367,24.872174 c 0.573694,0.53627 1.273107,0.487325 1.87662,0.01512"
       id="path9"
       sodipodi:nodetypes="cc"
       transform="translate(-9.571278,-11.560325)"
       inkscape:label="chin_oval" /></g><g
     inkscape:groupmode="layer"
     id="layer20"
     inkscape:label="mouth_smile"
     style="display:none"><path
       id="path11-0-1"
       style="display:inline;fill:#e5e5e5;fill-opacity:1;stroke:#000000;stroke-width:0.25;stroke-linecap:round;stroke-linejoin:round;stroke-dashoffset:1.15654;stroke-opacity:1;paint-order:markers fill stroke"
       d="m 20.680165,22.904851 -2.648934,0.05219 c 0.404971,0.635267 1.609415,0.740497 2.39417,0.170532 0.09077,-0.06593 0.177154,-0.138431 0.254764,-0.222725 z"
       inkscape:label="mouth_smile"
       inkscape:export-filename="mouth-smile.svg"
       inkscape:export-xdpi="300"
       inkscape:export-ydpi="300"
       transform="translate(-9.571278,-11.560325)" /></g><g
     inkscape:groupmode="layer"
     id="layer7"
     inkscape:label="mouth_smirk"
     style="display:none"><path
       id="path11-0-1-1-7"
       style="display:inline;fill:none;fill-opacity:1;stroke:#000000;stroke-width:0.25;stroke-linecap:round;stroke-linejoin:round;stroke-dashoffset:1.15654;stroke-opacity:1;paint-order:markers fill stroke"
       d="m 45.699479,22.81302 c 0.276347,0.266936 0.785055,0.822348 1.604889,0.825342"
       inkscape:label="mouth - smirk"
       sodipodi:nodetypes="cc"
       inkscape:export-filename="mouth-smirk.svg"
       inkscape:export-xdpi="300"
       inkscape:export-ydpi="300"
       transform="translate(-37.570836,-11.702364)" /></g><g
     inkscape:groupmode="layer"
     id="layer13"
     inkscape:label="mouth_frown"
     style="display:none"><path
       id="path11-0-1-1"
       style="display:inline;fill:none;fill-opacity:1;stroke:#000000;stroke-width:0.25;stroke-linecap:round;stroke-linejoin:round;stroke-dashoffset:1.15654;stroke-opacity:1;paint-order:markers fill stroke"
       d="m 18.651378,23.574007 c 0.383336,-0.514449 1.4344,-0.590492 1.828618,-0.324903"
       inkscape:label="mouth_frown"
       sodipodi:nodetypes="cc"
       inkscape:export-filename="mouth-frown.svg"
       inkscape:export-xdpi="300"
       inkscape:export-ydpi="300"
       transform="translate(-9.571278,-11.560209)" /></g><g
     inkscape:groupmode="layer"
     id="layer28"
     inkscape:label="mouth_neutral"
     style="display:none"><path
       style="display:inline;fill:none;fill-opacity:1;stroke:#000000;stroke-width:0.25;stroke-linecap:round;stroke-linejoin:round;stroke-dashoffset:1.15654;stroke-opacity:1;paint-order:markers fill stroke"
       d="m 18.729405,23.741416 c 0.601921,0.251291 1.164067,0.08658 1.418543,-0.03473"
       id="path11"
       sodipodi:nodetypes="cc"
       inkscape:label="mouth_neutral"
       inkscape:export-filename="mouth-neutral.svg"
       inkscape:export-xdpi="300"
       inkscape:export-ydpi="300"
       transform="translate(-9.571278,-11.560325)" /></g><g
     inkscape:groupmode="layer"
     id="layer19"
     inkscape:label="shirt_round"
     style="display:none"><path
       id="path4-0-9"
       style="display:inline;fill:#000000;fill-opacity:1;stroke:none;stroke-width:0.25;stroke-linecap:round;stroke-linejoin:round;stroke-dashoffset:1.15654;paint-order:markers fill stroke"
       d="m 21.127463,26.624733 c -0.254321,2.416424 -3.403227,3.282466 -3.906739,-0.0036 -4.057841,0.336216 -4.366944,1.766888 -4.511869,4.921147 l 13.459644,0.02894 c -0.309965,-2.899166 -0.674136,-4.609096 -5.036902,-4.950602 z"
       sodipodi:nodetypes="cccccc"
       inkscape:label="shirt _round"
       inkscape:export-filename="shirt-round.svg"
       inkscape:export-xdpi="300"
       inkscape:export-ydpi="300"
       transform="translate(-9.571278,-11.560325)" /></g><g
     inkscape:groupmode="layer"
     id="layer14"
     inkscape:label="shirt_turtleneck"
     style="display:none"><path
       id="path38"
       style="display:inline;fill:#000000;fill-opacity:1;stroke:none;stroke-width:0.2;stroke-linecap:round;stroke-linejoin:round;stroke-dasharray:none;stroke-dashoffset:1.15654;stroke-opacity:1;paint-order:markers fill stroke"
       d="m 17.260733,25.82302 c 0.01778,0.154745 -8.73e-4,0.454755 -0.03772,0.814421 -8.5e-4,-0.0054 -0.0012,-0.01108 -0.0021,-0.01654 -4.057841,0.336216 -4.366944,1.766888 -4.511869,4.921147 l 13.459644,0.02894 c -0.309856,-2.898142 -0.67385,-4.607734 -5.032251,-4.950086 0.0041,-0.238803 0.01895,-0.423915 0.04857,-0.642338 -1.097165,0.390776 -2.879558,0.505753 -3.924308,-0.155546 z"
       inkscape:label="shirt_turtleneck"
       inkscape:export-filename="shirt-turtleneck.svg"
       inkscape:export-xdpi="300"
       inkscape:export-ydpi="300"
       transform="translate(-9.571278,-11.560209)" /></g><g
     inkscape:groupmode="layer"
     id="layer6"
     inkscape:label="shirt_vneck"
     style="display:none"><path
       id="path4-3"
       style="display:inline;fill:#000000;fill-opacity:1;stroke:none;stroke-width:0.25;stroke-linecap:round;stroke-linejoin:round;stroke-dashoffset:1.15654;paint-order:markers fill stroke"
       d="m 45.220278,26.768621 c -4.057841,0.336216 -5.73503,1.743502 -5.879955,4.897761 l 15.669629,0.0056 c -0.309965,-2.899166 -2.512285,-4.865928 -5.901971,-4.98215 -0.375252,0.296254 -1.138617,2.431458 -1.875243,2.484003 -0.736626,0.05254 -1.446512,-1.977567 -2.01246,-2.405173 z"
       sodipodi:nodetypes="ccccccc"
       inkscape:label="shirt_vneck"
       inkscape:export-filename="shirt-vneck.svg"
       inkscape:export-xdpi="300"
       inkscape:export-ydpi="300"
       transform="translate(-37.570836,-11.702364)" /></g><g
     inkscape:groupmode="layer"
     id="layer26"
     inkscape:label="shirt_crew"
     style="display:none"><path
       id="path4"
       style="display:inline;fill:#000000;fill-opacity:1;stroke:none;stroke-width:0.25;stroke-linecap:round;stroke-linejoin:round;stroke-dashoffset:1.15654;paint-order:markers fill stroke"
       d="m 21.127463,26.624733 c -0.833097,0.696632 -2.774842,0.851607 -3.906739,-0.0036 -4.057841,0.336216 -4.366944,1.766888 -4.511869,4.921147 l 13.459644,0.02894 c -0.309965,-2.899166 -0.674136,-4.609096 -5.036902,-4.950602 z"
       sodipodi:nodetypes="cccccc"
       inkscape:label="shirt_crew"
       inkscape:export-filename="PilotPortraits\shirt-crew.svg"
       inkscape:export-xdpi="300"
       inkscape:export-ydpi="300"
       transform="translate(-9.571278,-11.560325)" /></g><g
     inkscape:groupmode="layer"
     id="layer21"
     inkscape:label="eyes_narrow"
     style="display:none"><path
       style="display:inline;fill:#808080;fill-opacity:1;stroke:none;stroke-width:0.25;stroke-linecap:round;stroke-linejoin:round;stroke-dashoffset:1.15654;stroke-opacity:1;paint-order:markers fill stroke"
       d="m 18.501841,19.693152 c -0.255982,-0.503819 -1.440187,-0.828098 -1.721592,-0.0124 0.51315,0.619643 1.447705,0.611309 1.721592,0.0124 z"
       id="path7-2-4-8-86"
       sodipodi:nodetypes="ccc"
       transform="matrix(-1.5075324,0,0,1.5075324,38.892311,-21.858636)"
       inkscape:label="white_right_narrow" /><path
       style="display:inline;fill:#808080;fill-opacity:1;stroke:none;stroke-width:0.25;stroke-linecap:round;stroke-linejoin:round;stroke-dashoffset:1.15654;stroke-opacity:1;paint-order:markers fill stroke"
       d="m 18.501841,19.693152 c -0.255982,-0.503819 -1.440187,-0.828098 -1.721592,-0.0124 0.51315,0.619643 1.447705,0.611309 1.721592,0.0124 z"
       id="path7-2-4-8-8-1"
       sodipodi:nodetypes="ccc"
       transform="matrix(1.5075324,0,0,1.5075324,-18.85687,-21.846943)"
       inkscape:label="white_left_narrow" /><path
       id="path7-2-4-8-1-4"
       style="display:inline;fill:#000000;fill-opacity:1;stroke:none;stroke-width:0.25;stroke-linecap:round;stroke-linejoin:round;stroke-dashoffset:1.15654;stroke-opacity:1;paint-order:markers fill stroke"
       d="m 17.539194,19.184662 c 0.246556,0.0048 0.502382,0.09189 0.695174,0.223498 a 0.60000002,0.60000002 0 0 1 0.05656,0.254348 0.60000002,0.60000002 0 0 1 -0.146028,0.391807 c -0.268585,0.129603 -0.621096,0.119487 -0.936154,-0.03462 a 0.60000002,0.60000002 0 0 1 -0.117919,-0.357186 0.60000002,0.60000002 0 0 1 0.207386,-0.453851 c 0.0774,-0.01814 0.158795,-0.02559 0.240981,-0.02399 z"
       transform="matrix(-1.5075324,0,0,1.5075324,38.886863,-21.860527)"
       inkscape:label="iris_right_narrow" /><path
       id="path7-2-4-8-1-9-0"
       style="display:inline;fill:#000000;fill-opacity:1;stroke:none;stroke-width:0.25;stroke-linecap:round;stroke-linejoin:round;stroke-dashoffset:1.15654;stroke-opacity:1;paint-order:markers fill stroke"
       d="m 17.539194,19.184662 c 0.246556,0.0048 0.502382,0.09189 0.695174,0.223498 a 0.60000002,0.60000002 0 0 1 0.05656,0.254348 0.60000002,0.60000002 0 0 1 -0.146028,0.391807 c -0.268585,0.129603 -0.621096,0.119487 -0.936154,-0.03462 a 0.60000002,0.60000002 0 0 1 -0.117919,-0.357186 0.60000002,0.60000002 0 0 1 0.207386,-0.453851 c 0.0774,-0.01814 0.158795,-0.02559 0.240981,-0.02399 z"
       transform="matrix(1.5075324,0,0,1.5075324,-18.851422,-21.848834)"
       inkscape:label="iris_left_narrow" /><circle
       style="display:inline;fill:#333333;fill-opacity:1;stroke:none;stroke-width:0.25;stroke-linecap:round;stroke-linejoin:round;stroke-dashoffset:1.15654;stroke-opacity:1;paint-order:markers fill stroke"
       id="path7-1-0-8-6"
       cx="17.772558"
       cy="19.711458"
       r="0.25"
       transform="matrix(-1.5075324,0,0,1.5075324,38.886863,-21.860527)"
       inkscape:label="pupil_right_narrow" /><circle
       style="display:inline;fill:#333333;fill-opacity:1;stroke:none;stroke-width:0.25;stroke-linecap:round;stroke-linejoin:round;stroke-dashoffset:1.15654;stroke-opacity:1;paint-order:markers fill stroke"
       id="path7-1-0-8-1-3"
       cx="17.772558"
       cy="19.711458"
       r="0.25"
       transform="matrix(1.5075324,0,0,1.5075324,-18.851422,-21.848834)"
       inkscape:label="pupil_left_narrow" /><path
       style="display:inline;fill:none;fill-opacity:1;stroke:#000000;stroke-width:0.25;stroke-linecap:round;stroke-linejoin:round;stroke-dashoffset:1.15654;stroke-opacity:1;paint-order:markers fill stroke"
       d="m 46.817578,18.601582 c -0.454352,-0.594608 -0.837898,-0.61748 -1.549673,-0.613296 -0.25428,0.0015 -0.987029,0.1036 -1.268351,0.239121"
       id="path16-1-9-4"
       sodipodi:nodetypes="csc"
       transform="translate(-37.520539,-11.697613)"
       inkscape:label="eyebrow_left_narrow" /><path
       style="display:inline;fill:none;fill-opacity:1;stroke:#000000;stroke-width:0.25;stroke-linecap:round;stroke-linejoin:round;stroke-dashoffset:1.15654;stroke-opacity:1;paint-order:markers fill stroke"
       d="m 48.20513,18.634187 c 0.198037,-0.569803 0.862703,-0.66709 1.5166,-0.629832 0.253873,0.01447 0.912615,0.186281 1.301424,0.255657"
       id="path16-7-9"
       sodipodi:nodetypes="csc"
       transform="translate(-37.520539,-11.697613)"
       inkscape:label="eyebrow_right_narrow" /></g><g
     inkscape:groupmode="layer"
     id="layer27"
     inkscape:label="eyes_normal"
     style="display:none"><path
       style="display:inline;fill:#808080;fill-opacity:1;stroke:none;stroke-width:0.25;stroke-linecap:round;stroke-linejoin:round;stroke-dashoffset:1.15654;stroke-opacity:1;paint-order:markers fill stroke"
       d="m 18.501841,19.693152 c -0.255982,-0.503819 -1.517751,-1.01813 -1.721592,-0.0124 0.553871,0.720476 1.447705,0.611309 1.721592,0.0124 z"
       id="path7-2-4"
       sodipodi:nodetypes="ccc"
       transform="matrix(-1.5075324,0,0,1.5075324,38.440466,-21.833756)"
       inkscape:label="white_right_normal" /><path
       style="display:inline;fill:#808080;fill-opacity:1;stroke:none;stroke-width:0.25;stroke-linecap:round;stroke-linejoin:round;stroke-dashoffset:1.15654;stroke-opacity:1;paint-order:markers fill stroke"
       d="m 18.501841,19.693152 c -0.255982,-0.503819 -1.517751,-1.01813 -1.721592,-0.0124 0.553871,0.720476 1.447705,0.611309 1.721592,0.0124 z"
       id="path7-2"
       sodipodi:nodetypes="ccc"
       transform="matrix(1.5075324,0,0,1.5075324,-18.705669,-21.833756)"
       inkscape:label="white_left_normal" /><path
       id="path7-2-1-3"
       style="display:inline;fill:#ffffff;fill-opacity:1;stroke:none;stroke-width:0.25;stroke-linecap:round;stroke-linejoin:round;stroke-dashoffset:1.15654;stroke-opacity:1;paint-order:markers fill stroke"
       d="m 17.460432,19.108395 a 0.60000002,0.60000002 0 0 0 -0.369486,0.553971 0.60000002,0.60000002 0 0 0 0.162264,0.410311 c 0.284595,0.141413 0.587768,0.145811 0.834057,0.03979 a 0.60000002,0.60000002 0 0 0 0.203606,-0.450102 0.60000002,0.60000002 0 0 0 -0.07183,-0.284737 c -0.214215,-0.154693 -0.498391,-0.267785 -0.75861,-0.269234 z"
       transform="matrix(-1.5075324,0,0,1.5075324,38.440466,-21.833756)"
       inkscape:label="iris_right_normal" /><path
       id="path7-2-1"
       style="display:inline;fill:#ffffff;fill-opacity:1;stroke:none;stroke-width:0.25;stroke-linecap:round;stroke-linejoin:round;stroke-dashoffset:1.15654;stroke-opacity:1;paint-order:markers fill stroke"
       d="m 17.460432,19.108395 a 0.60000002,0.60000002 0 0 0 -0.369486,0.553971 0.60000002,0.60000002 0 0 0 0.162264,0.410311 c 0.284595,0.141413 0.587768,0.145811 0.834057,0.03979 a 0.60000002,0.60000002 0 0 0 0.203606,-0.450102 0.60000002,0.60000002 0 0 0 -0.07183,-0.284737 c -0.214215,-0.154693 -0.498391,-0.267785 -0.75861,-0.269234 z"
       transform="matrix(1.5075324,0,0,1.5075324,-18.705669,-21.833756)"
       inkscape:label="iris_left_normal" /><circle
       style="display:inline;fill:#333333;fill-opacity:1;stroke:none;stroke-width:0.25;stroke-linecap:round;stroke-linejoin:round;stroke-dashoffset:1.15654;stroke-opacity:1;paint-order:markers fill stroke"
       id="path7-1"
       cx="17.772558"
       cy="19.711458"
       r="0.25"
       transform="matrix(-1.5075324,0,0,1.5075324,38.440466,-21.833756)"
       inkscape:label="pupil_right_normal" /><circle
       style="display:inline;fill:#333333;fill-opacity:1;stroke:none;stroke-width:0.25;stroke-linecap:round;stroke-linejoin:round;stroke-dashoffset:1.15654;stroke-opacity:1;paint-order:markers fill stroke"
       id="path7"
       cx="17.772558"
       cy="19.711458"
       r="0.25"
       transform="matrix(1.5075324,0,0,1.5075324,-18.705669,-21.833756)"
       inkscape:label="pupil_left_normal" /><path
       style="display:inline;fill:none;fill-opacity:1;stroke:#000000;stroke-width:0.25;stroke-linecap:round;stroke-linejoin:round;stroke-dashoffset:1.15654;stroke-opacity:1;paint-order:markers fill stroke"
       d="m 20.246502,18.638709 c 0.454352,-0.594608 1.153712,-0.636215 1.74811,-0.555418 0.331002,0.04499 0.706741,0.224613 0.97637,0.309866"
       id="path16"
       sodipodi:nodetypes="csc"
       transform="translate(-9.6548305,-11.560325)"
       inkscape:label="eyebrow_right_normal" /><path
       style="display:inline;fill:none;fill-opacity:1;stroke:#000000;stroke-width:0.25;stroke-linecap:round;stroke-linejoin:round;stroke-dashoffset:1.15654;stroke-opacity:1;paint-order:markers fill stroke"
       d="m 18.797957,18.753488 c -0.454352,-0.594608 -1.153712,-0.636215 -1.74811,-0.555418 -0.331002,0.04499 -0.706741,0.224613 -0.97637,0.309866"
       id="path16-3"
       sodipodi:nodetypes="csc"
       transform="translate(-9.6548305,-11.560325)"
       inkscape:label="eyebrow_left_normal" /></g><g
     inkscape:groupmode="layer"
     id="layer12"
     inkscape:label="eyes_visor"
     style="display:inline"><path
       style="display:inline;fill:#ffffff;fill-opacity:1;stroke:#000000;stroke-width:0.2;stroke-linecap:round;stroke-linejoin:round;stroke-dasharray:none;stroke-dashoffset:1.15654;stroke-opacity:1;paint-order:markers fill stroke"
       d="m 23.883601,18.944106 c -0.333937,0.555245 -1.674542,1.420589 -2.366632,1.460123 -0.748274,0.04274 -1.595644,-0.333381 -2.064214,-0.327302 -0.609839,0.0079 -1.291627,0.468298 -1.992747,0.342694 -0.701121,-0.125606 -2.159062,-0.803655 -2.662729,-1.718475 l 0.03326,-1.085491 c 1.089847,0.380199 2.283731,0.04843 3.002147,0.196575 0.718416,0.148146 1.230422,0.718707 1.722055,0.737462 0.492465,0.01879 0.875667,-0.668296 1.712315,-0.743537 0.772417,-0.06946 1.985712,0.09981 2.563669,-0.06031 z"
       id="path38-8"
       sodipodi:nodetypes="csssccssscc"
       inkscape:label="eyes_visor"
       inkscape:export-filename="eyes-visor.svg"
       inkscape:export-xdpi="300"
       inkscape:export-ydpi="300"
       transform="translate(-9.571278,-11.560209)" /></g><g
     inkscape:groupmode="layer"
     id="layer4"
     inkscape:label="eyes_wide"
     style="display:none"><path
       style="display:inline;fill:#808080;fill-opacity:1;stroke:none;stroke-width:0.376883;stroke-linecap:round;stroke-linejoin:round;stroke-dashoffset:1.15654;stroke-opacity:1;paint-order:markers fill stroke"
       d="m 20.246383,19.438909 c 0.06757,-1.05718 2.180572,-1.774643 2.595356,-0.01869 -0.363689,0.933179 -2.430509,1.19442 -2.595356,0.01869 z"
       id="path7-2-4-5"
       sodipodi:nodetypes="ccc"
       inkscape:label="white_right_wide"
       transform="translate(-9.584159,-11.761378)" /><path
       style="display:inline;fill:#808080;fill-opacity:1;stroke:none;stroke-width:0.376883;stroke-linecap:round;stroke-linejoin:round;stroke-dashoffset:1.15654;stroke-opacity:1;paint-order:markers fill stroke"
       d="m 18.77756,19.438909 c -0.06757,-1.05718 -2.180571,-1.774643 -2.595355,-0.01869 0.363689,0.933179 2.430508,1.19442 2.595355,0.01869 z"
       id="path7-2-4-5-7"
       sodipodi:nodetypes="ccc"
       inkscape:label="white_left_wide"
       transform="translate(-9.584159,-11.761378)" /><path
       id="path7-2-4-5-4"
       style="display:inline;fill:#ffffff;fill-opacity:1;stroke:none;stroke-width:0.376883;stroke-linecap:round;stroke-linejoin:round;stroke-dashoffset:1.15654;stroke-opacity:1;paint-order:markers fill stroke"
       d="m 21.682127,18.358142 c -0.269814,-0.0093 -0.545167,0.06303 -0.781864,0.191721 a 1,1 0 0 0 -0.323495,0.736388 1,1 0 0 0 0.637688,0.932243 c 0.357127,0.02837 0.750556,-0.05424 1.067119,-0.223243 a 1,1 0 0 0 0.295072,-0.709 1,1 0 0 0 -0.424265,-0.817521 c -0.14816,-0.06992 -0.308366,-0.104984 -0.470255,-0.110592 z"
       inkscape:label="iris_right_wide"
       transform="translate(-9.584159,-11.761378)" /><path
       id="path7-2-4-5-4-8"
       style="display:inline;fill:#ffffff;fill-opacity:1;stroke:none;stroke-width:0.376883;stroke-linecap:round;stroke-linejoin:round;stroke-dashoffset:1.15654;stroke-opacity:1;paint-order:markers fill stroke"
       d="m 17.341817,18.358142 c 0.269813,-0.0093 0.545167,0.06303 0.781863,0.191721 a 1,1 0 0 1 0.323496,0.736388 1,1 0 0 1 -0.637688,0.932243 c -0.357127,0.02837 -0.750557,-0.05424 -1.067119,-0.223243 a 1,1 0 0 1 -0.295072,-0.709 1,1 0 0 1 0.424265,-0.817521 c 0.14816,-0.06992 0.308365,-0.104984 0.470255,-0.110592 z"
       inkscape:label="iris_left_wide"
       transform="translate(-9.584159,-11.761378)" /><circle
       style="display:inline;fill:#333333;fill-opacity:1;stroke:none;stroke-width:0.376883;stroke-linecap:round;stroke-linejoin:round;stroke-dashoffset:1.15654;stroke-opacity:1;paint-order:markers fill stroke"
       id="path7-1-1"
       cx="-21.3458"
       cy="19.466505"
       r="0.44999999"
       transform="matrix(-1,0,0,1,-9.584159,-11.761378)"
       inkscape:label="pupil_right_wide" /><circle
       style="display:inline;fill:#333333;fill-opacity:1;stroke:none;stroke-width:0.376883;stroke-linecap:round;stroke-linejoin:round;stroke-dashoffset:1.15654;stroke-opacity:1;paint-order:markers fill stroke"
       id="path7-1-1-7"
       cx="17.678143"
       cy="19.466505"
       r="0.44999999"
       inkscape:label="pupil_left_wide"
       transform="translate(-9.584159,-11.761378)" /><path
       style="display:inline;fill:none;fill-opacity:1;stroke:#000000;stroke-width:0.25;stroke-linecap:round;stroke-linejoin:round;stroke-dashoffset:1.15654;stroke-opacity:1;paint-order:markers fill stroke"
       d="m 20.289712,18.638709 c 0.454352,-0.594608 1.153712,-0.636215 1.74811,-0.555418 0.331002,0.04499 0.706741,0.224613 0.97637,0.309866"
       id="path16-5"
       sodipodi:nodetypes="csc"
       inkscape:label="eyebrow_right_wide"
       transform="translate(-9.584159,-11.761378)" /><path
       style="display:inline;fill:none;fill-opacity:1;stroke:#000000;stroke-width:0.25;stroke-linecap:round;stroke-linejoin:round;stroke-dashoffset:1.15654;stroke-opacity:1;paint-order:markers fill stroke"
       d="m 18.841167,18.753488 c -0.454352,-0.594608 -1.153712,-0.636215 -1.74811,-0.555418 -0.331002,0.04499 -0.706741,0.224613 -0.97637,0.309866"
       id="path16-3-7"
       sodipodi:nodetypes="csc"
       inkscape:label="eyebrow_left_wide"
       transform="translate(-9.584159,-11.761378)" /></g><g
     inkscape:groupmode="layer"
     id="layer22"
     inkscape:label="hair_front_mohawk"
     style="display:none"><path
       style="display:inline;fill:#000000;fill-opacity:1;stroke:#b2b2b2;stroke-width:0.2;stroke-linecap:round;stroke-linejoin:round;stroke-dasharray:none;stroke-dashoffset:1.15654;stroke-opacity:1;paint-order:markers fill stroke"
       d="m 18.430687,12.879106 c 0.05908,0.05064 0.370761,0.426558 0.475425,0.558105 0.01747,-0.202627 0.118163,-0.436267 0.194334,-0.640789 0.075,-0.229699 0.108725,-0.323542 0.268719,-0.02067 0.135925,0.257305 0.178346,0.273066 0.289387,0.578776 0.04325,-0.124958 0.08715,-0.489743 0.425813,-0.760674 0.05841,-0.04673 0.282429,0.44628 0.332256,0.588252 0.30521,1.089635 0.132803,3.311851 0.132803,3.311851 0,0 -0.615085,0.316925 -0.991441,0.584454 -0.338317,-0.241061 -0.768516,-0.457969 -1.07443,-0.568886 0.222775,-1.575695 -0.349128,-3.884361 -0.05287,-3.630419 z"
       id="path30"
       sodipodi:nodetypes="scsscsccccs"
       inkscape:label="hair_front_mohawk"
       inkscape:export-filename="PilotPortraits\hair-top-mohawk.svg"
       inkscape:export-xdpi="300"
       inkscape:export-ydpi="300"
       transform="translate(-9.571278,-11.560325)" /></g><g
     inkscape:groupmode="layer"
     id="layer2"
     inkscape:label="hair_front_long_sweep"
     style="display:none"><path
       style="display:inline;fill:#000000;fill-opacity:1;stroke:none;stroke-width:0.25;stroke-linecap:round;stroke-linejoin:round;stroke-dashoffset:1.15654;stroke-opacity:1;paint-order:markers fill stroke"
       d="m 47.641144,16.046196 c -0.723032,1.014281 -0.152872,2.502503 -4.925228,2.252546 -0.176023,-1.978452 -0.01836,-3.122099 2.420854,-4.285431 1.260323,-0.601085 2.813667,-0.326444 3.73271,-0.0877 1.275127,0.331249 1.799167,0.80007 2.360974,1.402345 0.685485,0.734862 0.722393,3.251535 0.722393,3.251535 -4.25091,-0.01655 -3.635834,-1.672886 -4.311703,-2.533295 z"
       id="path5-1"
       sodipodi:nodetypes="ccssscc"
       inkscape:label="hair_front_long_sweep"
       inkscape:export-filename="PilotPortraits\hair-top-long.svg"
       inkscape:export-xdpi="300"
       inkscape:export-ydpi="300"
       transform="translate(-37.570836,-11.702364)" /></g><g
     inkscape:groupmode="layer"
     id="layer11"
     inkscape:label="hair_front_beanie"
     style="display:none"><path
       style="display:inline;fill:#000000;fill-opacity:1;stroke:#000000;stroke-width:0.2;stroke-linecap:round;stroke-linejoin:round;stroke-dasharray:none;stroke-dashoffset:1.15654;stroke-opacity:1;paint-order:markers fill stroke"
       d="m 14.821604,17.6044 c -0.340964,-5.230794 8.90828,-5.606837 9.004102,0.14056 -3.730155,0.824342 -4.675513,0.798491 -9.004102,-0.14056 z"
       id="path40"
       sodipodi:nodetypes="ccc"
       inkscape:label="hair_front_ beanie"
       inkscape:export-filename="hair-top-beanie.svg"
       inkscape:export-xdpi="300"
       inkscape:export-ydpi="300"
       transform="translate(-9.571278,-11.560209)" /></g><g
     inkscape:groupmode="layer"
     id="layer29"
     inkscape:label="hair_front_short_crop"
     style="display:none"><path
       style="display:inline;fill:#000000;fill-opacity:1;stroke:none;stroke-width:0.25;stroke-linecap:round;stroke-linejoin:round;stroke-dashoffset:1.15654;stroke-opacity:1;paint-order:markers fill stroke"
       d="m 21.944237,16.71038 c -0.662002,0.624491 -0.476681,0.22622 -0.87017,0.641194 -0.473999,-0.413274 -0.381961,-0.234857 -0.854121,-0.782929 -0.264354,0.214658 -0.598052,0.635291 -0.944341,0.797359 -0.07972,-0.175376 -0.08535,-0.538329 -0.18359,-0.618287 -0.09824,-0.07996 -0.309566,0.40371 -0.420642,0.354708 -0.111076,-0.049 -0.116061,-0.437738 -0.234274,-0.520241 -0.118213,-0.0825 -0.323345,0.304925 -0.422536,0.443092 -0.198371,-0.244236 -0.403437,-0.502314 -0.515534,-0.546421 -0.0687,-0.02703 -0.173435,0.682105 -0.288616,0.650725 -0.11518,-0.03139 -0.156341,-0.480774 -0.256676,-0.597361 -0.03129,0.04183 -0.212932,0.503236 -0.275966,0.548399 -0.06303,0.04516 -0.463481,-0.358074 -0.5465,-0.332502 -0.08302,0.02557 -0.322178,0.652426 -0.413423,0.635484 -0.09125,-0.01694 -0.364904,-0.353198 -0.452614,-0.435579 -0.257934,0.091 -0.181465,0.965051 -0.528618,0.936974 -0.266973,-2.044598 0.62258,-3.821379 2.517529,-4.485631 0.912011,-0.319067 2.813667,-0.326444 3.73271,-0.0877 1.275127,0.331249 1.799167,0.80007 2.360974,1.402345 0.685485,0.734862 0.59377,3.345079 0.59377,3.345079 0,0 -0.166734,-0.41086 -0.32111,-0.480893 -0.154372,-0.07003 -0.378597,-0.794005 -0.608395,-0.912786 -0.153792,0.325575 -0.211603,0.493039 -0.497138,0.676128 -0.226274,-0.146257 -0.301216,-0.531318 -0.570719,-0.631154 z"
       id="path5-1-0"
       sodipodi:nodetypes="ccccssscsscsssccssscscccc"
       inkscape:label="hair_front_short_crop"
       inkscape:export-filename="hair-top-shortcrop.svg"
       inkscape:export-xdpi="300"
       inkscape:export-ydpi="300"
       transform="translate(-9.571278,-11.560325)" /></g><g
     inkscape:groupmode="layer"
     id="layer5"
     inkscape:label="acc_earring_round"
     style="display:none"><circle
       style="display:inline;fill:#000000;fill-opacity:1;stroke:none;stroke-width:0.2;stroke-linecap:round;stroke-linejoin:round;stroke-dasharray:none;stroke-dashoffset:1.15654;stroke-opacity:1;paint-order:markers fill stroke"
       id="path37"
       cx="52.362694"
       cy="21.468456"
       r="0.30000001"
       transform="translate(-37.570836,-11.702364)"
       inkscape:label="earring_round_right" /><circle
       style="display:inline;fill:#000000;fill-opacity:1;stroke:none;stroke-width:0.2;stroke-linecap:round;stroke-linejoin:round;stroke-dasharray:none;stroke-dashoffset:1.15654;stroke-opacity:1;paint-order:markers fill stroke"
       id="path37-2"
       cx="42.550648"
       cy="21.235157"
       r="0.30000001"
       transform="translate(-37.570836,-11.702364)"
       inkscape:label="earring_round_left" /></g><g
     inkscape:groupmode="layer"
     id="layer10"
     inkscape:label="acc_earring_ring"
     style="display:none"><path
       style="display:inline;fill:none;fill-opacity:1;stroke:#000000;stroke-width:0.2;stroke-linecap:round;stroke-linejoin:round;stroke-dasharray:none;stroke-dashoffset:1.15654;stroke-opacity:1;paint-order:markers fill stroke"
       d="m 24.058751,20.885428 c -0.05722,0.205569 -0.142447,0.600772 -0.01754,0.684043 0.191672,0.127781 0.263386,-0.234767 0.263386,-0.345949"
       id="path39"
       sodipodi:nodetypes="csc"
       inkscape:label="acc_earring_ring_right"
       inkscape:export-filename="accesory-04.svg"
       inkscape:export-xdpi="300"
       inkscape:export-ydpi="300"
       transform="translate(-9.571278,-11.560209)" /></g><g
     inkscape:groupmode="layer"
     id="layer23"
     inkscape:label="acc_necklace_chain"
     style="display:none"><path
       id="path34-5-5"
       style="display:inline;fill:none;fill-opacity:1;stroke:#000000;stroke-width:0.191516;stroke-linecap:round;stroke-linejoin:round;stroke-dasharray:none;stroke-dashoffset:1.15654;stroke-opacity:1;paint-order:markers fill stroke"
       d="m 49.667114,26.76583 c 0.02525,0.769901 0.02525,0.759965 0.02525,0.759965 m -0.232453,0.240486 a 0.2,0.40000001 8.050037 0 0 0.142014,0.424066 0.2,0.40000001 8.050037 0 0 0.254044,-0.368051 0.2,0.40000001 8.050037 0 0 -0.142014,-0.424066 0.2,0.40000001 8.050037 0 0 -0.254044,0.368051 z m 0.164059,0.268189 c -0.207384,0.741874 -0.204398,0.732398 -0.204398,0.732398 m -0.277516,0.172758 a 0.2,0.40000001 25.205399 0 0 0.01061,0.447087 0.2,0.40000001 25.205399 0 0 0.351303,-0.276741 0.2,0.40000001 25.205399 0 0 -0.01061,-0.447088 0.2,0.40000001 25.205399 0 0 -0.351303,0.276742 z m -1.594199,1.580954 a 0.2,0.40000001 73.956899 0 0 -0.329149,0.302754 0.2,0.40000001 73.956899 0 0 0.439694,0.08167 0.2,0.40000001 73.956899 0 0 0.329149,-0.302755 0.2,0.40000001 73.956899 0 0 -0.439694,-0.08167 z m 0.980803,-0.30225 c -0.663544,0.391273 -0.654825,0.386508 -0.654825,0.386508 m 0.678069,-0.703231 a 0.2,0.40000001 46.009544 0 0 -0.148875,0.421706 0.2,0.40000001 46.009544 0 0 0.42669,-0.133924 0.2,0.40000001 46.009544 0 0 0.148875,-0.421706 0.2,0.40000001 46.009544 0 0 -0.42669,0.133924 z m 0.673988,-0.650506 c -0.409267,0.652599 -0.403717,0.644358 -0.403717,0.644358 m -4.384093,-3.132898 c -0.02525,0.769901 -0.02525,0.759965 -0.02525,0.759965 m 2.27612,3.241255 c 0.770182,0.01439 0.760247,0.01453 0.760247,0.01453 m -0.891865,-0.261003 a 0.40000001,0.2 16.043101 0 1 0.32915,0.302755 0.40000001,0.2 16.043101 0 1 -0.439694,0.08167 0.40000001,0.2 16.043101 0 1 -0.329149,-0.302755 0.40000001,0.2 16.043101 0 1 0.439693,-0.08167 z m -0.980798,-0.302247 c 0.663544,0.391273 0.654825,0.386508 0.654825,0.386508 m -0.678072,-0.703232 a 0.40000001,0.2 43.990456 0 1 0.148875,0.421707 0.40000001,0.2 43.990456 0 1 -0.42669,-0.133925 0.40000001,0.2 43.990456 0 1 -0.148874,-0.421706 0.40000001,0.2 43.990456 0 1 0.426689,0.133924 z m -0.673985,-0.650505 c 0.409267,0.652599 0.403717,0.644358 0.403717,0.644358 m -0.319878,-0.955834 a 0.40000001,0.2 64.794601 0 1 -0.01061,0.447087 0.40000001,0.2 64.794601 0 1 -0.351304,-0.276742 0.40000001,0.2 64.794601 0 1 0.01061,-0.447087 0.40000001,0.2 64.794601 0 1 0.351304,0.276742 z m -0.481917,-0.905155 c 0.207384,0.741874 0.204398,0.732398 0.204398,0.732398 m -0.04034,-1.000587 a 0.40000001,0.2 81.949963 0 1 -0.142014,0.424066 0.40000001,0.2 81.949963 0 1 -0.254045,-0.368051 0.40000001,0.2 81.949963 0 1 0.142014,-0.424066 0.40000001,0.2 81.949963 0 1 0.254045,0.368051 z"
       inkscape:label="acc_necklace_chain"
       transform="translate(-37.438536,-11.608595)" /></g><g
     inkscape:groupmode="layer"
     id="layer30"
     inkscape:label="acc_necklace_pendant"
     style="display:none"><path
       id="path31"
       style="baseline-shift:baseline;display:inline;overflow:visible;opacity:1;vector-effect:none;fill:#000000;fill-opacity:1;stroke-linecap:round;stroke-linejoin:round;stroke-dashoffset:1.15654;paint-order:markers fill stroke;enable-background:accumulate;stop-color:#000000;stop-opacity:1"
       d="m 21.342136,26.556826 a 0.125,0.125 0 0 0 -0.09612,0.05426 c -0.525096,0.762553 -1.038033,1.328678 -1.425753,1.727026 -0.193859,0.199174 -0.354792,0.355691 -0.47439,0.476457 -0.05021,0.0507 -0.08999,0.0911 -0.125057,0.130741 -0.764011,-0.807903 -1.541242,-1.400333 -2.089795,-2.31252 a 0.125,0.125 0 0 0 -0.172082,-0.04082 0.125,0.125 0 0 0 -0.04082,0.169498 c 0.569198,0.946518 1.340975,1.542694 2.08101,2.318205 -0.213616,0.09965 -0.362251,0.316748 -0.362251,0.566891 0,0.343698 0.28107,0.624768 0.624768,0.624768 0.343697,0 0.625285,-0.28107 0.625285,-0.624768 0,-0.274164 -0.179452,-0.508566 -0.426331,-0.592212 0.01891,-0.01966 0.04034,-0.04115 0.06304,-0.06408 0.116054,-0.117187 0.279679,-0.276352 0.476457,-0.478524 0.393556,-0.404344 0.915691,-0.98209 1.451074,-1.759582 a 0.125,0.125 0 0 0 -0.03101,-0.17415 0.125,0.125 0 0 0 -0.07803,-0.02119 z"
       transform="translate(-9.571278,-11.560325)"
       inkscape:label="acc_necklace_pendant" /><path
       id="path24"
       style="baseline-shift:baseline;display:inline;overflow:visible;opacity:1;vector-effect:none;fill:#ffffff;fill-rule:evenodd;enable-background:accumulate;stop-color:#000000;stop-opacity:1"
       d="m 19.029099,29.263637 c -0.03855,-1.6e-4 -0.07769,0.01413 -0.10697,0.04341 -0.05855,0.05855 -0.05855,0.153841 0,0.212391 0.03113,0.03113 0.0729,0.04538 0.113688,0.04341 l 0.08268,0.0832 -0.07441,0.07441 c -0.04084,-0.002 -0.08252,0.01224 -0.113688,0.04341 -0.05855,0.05855 -0.05855,0.15384 0,0.21239 0.05855,0.05855 0.153323,0.05855 0.211873,0 0.03042,-0.03042 0.04515,-0.07172 0.04341,-0.112654 l 0.07545,-0.07545 0.08216,0.08268 c -0.002,0.0408 0.01279,0.08203 0.04392,0.113172 0.05855,0.05855 0.153841,0.05855 0.212391,0 0.05855,-0.05855 0.05855,-0.153324 0,-0.211874 -0.03045,-0.03044 -0.07221,-0.04518 -0.113172,-0.04341 l -0.0832,-0.0832 0.07441,-0.07441 c 0.04088,0.0021 0.08248,-0.01272 0.113688,-0.04392 0.05727,-0.05728 0.05855,-0.153323 0,-0.211873 -0.05855,-0.05855 -0.153323,-0.05855 -0.211873,0 -0.03141,0.03141 -0.04622,0.07306 -0.04392,0.114205 l -0.07441,0.0739 -0.0832,-0.0832 c 0.0019,-0.04075 -0.01231,-0.08207 -0.04341,-0.113172 -0.02864,-0.02864 -0.06687,-0.04325 -0.10542,-0.04341 z"
       transform="translate(-9.571278,-11.560325)"
       inkscape:label="acc_pendant_design" /></g></svg>
