<?xml version="1.0" encoding="UTF-8" standalone="no"?>
<!-- Created with Inkscape (http://www.inkscape.org/) -->

<svg
   width="3.0773475mm"
   height="2.6804676mm"
   viewBox="0 0 3.0773475 2.6804676"
   version="1.1"
   id="svg1"
   inkscape:version="1.4.3 (0d15f75, 2025-12-25)"
   sodipodi:docname="pilot-portraits.svg"
   xmlns:inkscape="http://www.inkscape.org/namespaces/inkscape"
   xmlns:sodipodi="http://sodipodi.sourceforge.net/DTD/sodipodi-0.dtd"
   xmlns="http://www.w3.org/2000/svg"
   xmlns:svg="http://www.w3.org/2000/svg">
  <sodipodi:namedview
     id="namedview1"
     pagecolor="#505050"
     bordercolor="#eeeeee"
     borderopacity="1"
     inkscape:showpageshadow="0"
     inkscape:pageopacity="0"
     inkscape:pagecheckerboard="0"
     inkscape:deskcolor="#505050"
     inkscape:document-units="mm"
     inkscape:zoom="32"
     inkscape:cx="365.95312"
     inkscape:cy="85.34375"
     inkscape:window-width="3840"
     inkscape:window-height="2054"
     inkscape:window-x="-11"
     inkscape:window-y="-11"
     inkscape:window-maximized="1"
     inkscape:current-layer="g18-5-4-7">
    <inkscape:page
       x="0"
       y="0"
       width="3.0773475"
       height="2.6804676"
       id="page2"
       margin="0"
       bleed="0" />
  </sodipodi:namedview>
  <defs
     id="defs1">
    <linearGradient
       id="swatch4"
       inkscape:swatch="solid">
      <stop
         style="stop-color:#262626;stop-opacity:1;"
         offset="0"
         id="stop4" />
    </linearGradient>
  </defs>
  <g
     inkscape:label="Layer 1"
     inkscape:groupmode="layer"
     id="layer1"
     style="display:inline"
     transform="translate(-99.052588,-11.558203)">
    <g
       id="g18-5-4-7"
       transform="translate(81.313095,-0.38167913)"
       inkscape:label="portrait - 04"
       style="display:inline">
      <g
         id="g71"
         inkscape:label="hair - back - beanie"
         style="display:inline"
         inkscape:export-filename="hair-back-beanie.svg"
         inkscape:export-xdpi="96"
         inkscape:export-ydpi="96">
        <path
           id="path70"
           style="display:inline;fill:#b2b2b2;fill-opacity:1;stroke:#b2b2b2;stroke-width:0.2;stroke-linecap:round;stroke-linejoin:round;stroke-dasharray:none;stroke-dashoffset:1.15654;stroke-opacity:1;paint-order:markers fill stroke"
           d="m 18.137164,12.676536 c 0.09323,0.03798 0.162161,0.111835 0.239779,0.165364 m 1.050065,-0.686263 c -0.03359,0.110348 -0.06722,0.235255 -0.09922,0.347266 m -0.429947,-0.347266 c -0.02669,0.138199 0.02233,0.273545 0.03307,0.405144 m -0.297653,-0.388607 c -0.009,0.143231 -0.01654,0.286862 -0.02479,0.429948 M 18.335602,12.46983 c 0.06679,0.146311 0.174466,0.245343 0.264583,0.37207 m -0.463021,0.05788 c 0.03134,0.210093 0.265197,0.235731 0.37207,0.330729 m 0.446485,-0.909505 c -0.02795,0.12953 0.09409,0.282268 0.124023,0.37207 m 1.604037,0.669727 c -0.128236,0.0571 -0.271849,0.03883 -0.405144,0.05788 m 0.181902,-0.471292 c -0.04671,0.0654 -0.11025,0.115762 -0.165365,0.173633 m -0.545703,-0.818555 c -0.09942,0.08765 -0.09574,0.214005 -0.14056,0.314193 m -0.03307,-0.388607 c -0.02956,0.10203 -0.03879,0.210562 -0.05788,0.314193 m 0.603583,0.01654 c -0.02188,0.137552 -0.137059,0.234143 -0.198437,0.338997 M 18.3108,13.032075 c 0.07304,0.07475 0.165428,0.121314 0.248047,0.181901 m -0.520899,0.223242 c 0.09922,0 0.198438,0 0.297657,0 m 0.07441,-0.686263 c 7.93e-4,-0.01666 0.119107,0.06732 0.190169,0.107487 m 0.07441,-0.438216 c 0.01479,0.111382 0.109082,0.212103 0.148828,0.289388 m 0.454753,-0.496094 c 0,0.104731 0,0.209462 0,0.314193 m 0.421679,0.0248 c 0.06267,-0.09024 0.122881,-0.178735 0.181901,-0.264583 m 0.231511,0.744141 c 0.06811,-0.108939 0.192926,-0.110244 0.289388,-0.165365 m -0.28112,0.677995 c 0.148873,-0.0097 0.297617,-0.01653 0.446485,-0.02481 m 0.148828,-0.471284 c -0.168244,0.106304 -0.3785,0.16631 -0.545703,0.239779 m 0.173632,-0.611849 c -0.147362,0.141055 -0.314333,0.259187 -0.471289,0.388607 m -1.5875,-0.239779 c 0.0498,-0.02046 0.267108,0.184007 0.372071,0.256315 m 0.173632,-0.777214 c -0.04786,0.192239 0.105133,0.331995 0.157097,0.496094 m 0.677995,-0.644922 c -0.28271,0.05203 -0.181647,0.368968 -0.264584,0.537435 m 0.628386,-0.272851 c -0.158369,0.145487 -0.2579,0.347605 -0.380339,0.51263 m -1.339453,-0.735873 c 0.241692,0.350867 0.440936,0.727371 0.661458,1.091407 m -0.520898,0.115755 c -0.12251,-0.280055 -0.418817,-0.152812 -0.611849,-0.223242" />
        <circle
           style="fill:#b2b2b2;fill-opacity:1;stroke:#b2b2b2;stroke-width:0.2;stroke-linecap:round;stroke-linejoin:round;stroke-dasharray:none;stroke-dashoffset:1.15654;stroke-opacity:1;paint-order:markers fill stroke"
           id="path41"
           cx="19.319094"
           cy="13.540565"
           r="0.97978514"
           inkscape:label="hair - back - beanie" />
        <path
           style="display:inline;fill:#b2b2b2;fill-opacity:1;stroke:#b2b2b2;stroke-width:0.2;stroke-linecap:round;stroke-linejoin:round;stroke-dasharray:none;stroke-dashoffset:1.15654;stroke-opacity:1;paint-order:markers fill stroke"
           d="m 19.203766,12.039882 c -0.178986,0.162759 -0.08483,0.418474 -0.124024,0.611849"
           id="path44" />
      </g>
    </g>
  </g>
</svg>
