<?xml version="1.0" encoding="UTF-8" standalone="no"?>
<!-- Created with Inkscape (http://www.inkscape.org/) -->

<svg
   width="10.099461mm"
   height="5.4476409mm"
   viewBox="0 0 10.099461 5.4476409"
   version="1.1"
   id="svg1"
   inkscape:version="1.4.3 (0d15f75, 2025-12-25)"
   sodipodi:docname="pilot-portraits.svg"
   xmlns:inkscape="http://www.inkscape.org/namespaces/inkscape"
   xmlns:sodipodi="http://sodipodi.sourceforge.net/DTD/sodipodi-0.dtd"
   xmlns="http://www.w3.org/2000/svg"
   xmlns:svg="http://www.w3.org/2000/svg">
  <sodipodi:namedview
     id="namedview1"
     pagecolor="#505050"
     bordercolor="#eeeeee"
     borderopacity="1"
     inkscape:showpageshadow="0"
     inkscape:pageopacity="0"
     inkscape:pagecheckerboard="0"
     inkscape:deskcolor="#505050"
     inkscape:document-units="mm"
     inkscape:zoom="32"
     inkscape:cx="365.95312"
     inkscape:cy="85.34375"
     inkscape:window-width="3840"
     inkscape:window-height="2054"
     inkscape:window-x="-11"
     inkscape:window-y="-11"
     inkscape:window-maximized="1"
     inkscape:current-layer="g18-5-4-7">
    <inkscape:page
       x="1.2737625e-22"
       y="0"
       width="10.099462"
       height="5.4476409"
       id="page2"
       margin="0"
       bleed="0" />
  </sodipodi:namedview>
  <defs
     id="defs1">
    <linearGradient
       id="swatch4"
       inkscape:swatch="solid">
      <stop
         style="stop-color:#262626;stop-opacity:1;"
         offset="0"
         id="stop4" />
    </linearGradient>
  </defs>
  <g
     inkscape:label="Layer 1"
     inkscape:groupmode="layer"
     id="layer1"
     transform="translate(-14.388944,-12.633855)">
    <g
       id="g18"
       inkscape:label="portrait - 01">
      <path
         style="fill:#b2b2b2;fill-opacity:1;stroke:#b2b2b2;stroke-width:0.25;stroke-linecap:round;stroke-linejoin:round;stroke-dashoffset:1.15654;stroke-opacity:1;paint-order:markers fill stroke"
         d="m 14.842548,17.956495 c 0.01987,-0.518113 -0.276983,-1.340229 -0.276983,-1.860351 0,-0.118401 -0.07924,-1.307413 -0.04134,-1.364258 0.0068,-0.01022 0.239778,0.194565 0.239778,0.198438 0,0.01654 -0.0036,-0.03347 0,-0.04961 0.02117,-0.09528 0.06998,-0.228953 0.107487,-0.314192 0.09737,-0.221308 0.240755,-0.440168 0.355534,-0.669727 0.03869,-0.07737 -0.0064,0.214829 0.132292,0.115755 0.09984,-0.07131 0.180686,-0.150707 0.281119,-0.223242 0.329687,-0.238106 0.566463,-0.517382 0.909506,-0.768945 0.187467,-0.137477 0.0779,0.262243 0.181901,0.223242 0.426156,-0.159809 0.908409,-0.218615 1.322916,-0.405143 0.0149,-0.0067 0.104257,-0.08843 0.132292,-0.07441 0.03827,0.01913 0.03361,0.174173 0.05788,0.198437 0.05758,0.05758 0.747863,-0.005 0.967382,-0.01654 0.164325,-0.0086 0.549471,-0.217225 0.686263,-0.148828 0.169704,0.08485 0.04284,0.125726 0.297657,0.165364 0.279937,0.04355 1.37455,-0.135632 1.637109,0.07441 0.03216,0.02573 -0.05625,0.297591 -0.03307,0.355534 0.0173,0.04329 0.936093,-0.11828 0.983919,-0.09095 0.201451,0.115114 0.30828,0.490181 0.479558,0.661458 0.04175,0.04175 0.131122,0.153951 0.190169,0.173633 0.09211,0.0307 0.185923,-0.246149 0.239779,-0.165365 0.15481,0.232215 0.355115,1.471326 0.405143,1.521354 0.02897,0.02897 0.243467,-0.260895 0.264583,-0.239778 0.0013,0.0012 -0.09979,0.85389 -0.165364,1.11621 -0.02601,0.103995 -0.19398,0.877728 -0.181902,0.926042 0.0085,0.03409 0.220909,-0.19377 0.214974,-0.181901 -0.13648,0.272958 -0.19114,0.599979 -0.347265,0.818555"
         id="path17-8"
         sodipodi:nodetypes="cscsccccsssccccssscsssssccccc"
         inkscape:label="hair - back - shortcrop"
         inkscape:export-filename="hair-back-shortcrop.svg"
         inkscape:export-xdpi="300"
         inkscape:export-ydpi="300" />
    </g>
  </g>
</svg>
