<?xml version="1.0" encoding="UTF-8" standalone="no"?>
<!-- Created with Inkscape (http://www.inkscape.org/) -->

<svg
   width="7.1475043mm"
   height="2.2959697mm"
   viewBox="0 0 7.1475043 2.2959697"
   version="1.1"
   id="svg1"
   xmlns="http://www.w3.org/2000/svg"
   xmlns:svg="http://www.w3.org/2000/svg">
  <defs
     id="defs1">
    <linearGradient
       id="swatch4">
      <stop
         style="stop-color:#262626;stop-opacity:1;"
         offset="0"
         id="stop4" />
    </linearGradient>
  </defs>
  <g
     id="layer1"
     style="display:inline"
     transform="translate(-70.039816,-17.339839)">
    <g
       id="g19"
       transform="translate(26.061458,-0.52916666)"
       style="display:inline">
      <g
         id="g9-6"
         transform="translate(27.986676,-0.05901392)">
        <g
           id="g8-5-7"
           transform="matrix(-1.5075324,0,0,1.5075324,48.138508,-10.249156)">
          <path
             style="display:inline;fill:#e5e5e5;fill-opacity:1;stroke:none;stroke-width:0.25;stroke-linecap:round;stroke-linejoin:round;stroke-dashoffset:1.15654;stroke-opacity:1;paint-order:markers fill stroke"
             d="m 18.501841,19.693152 c -0.04482,-0.701265 -1.446451,-1.177184 -1.721592,-0.0124 0.241248,0.619011 1.612243,0.792301 1.721592,0.0124 z"
             id="path7-2-4-5" />
          <path
             id="path7-2-4-5-4"
             style="display:inline;fill:#808080;fill-opacity:1;stroke:none;stroke-width:0.25;stroke-linecap:round;stroke-linejoin:round;stroke-dashoffset:1.15654;stroke-opacity:1;paint-order:markers fill stroke"
             d="m 17.549461,18.976241 c 0.178977,-0.0062 0.361629,0.04181 0.518638,0.127175 a 0.66333568,0.66333568 0 0 1 0.214586,0.488473 0.66333568,0.66333568 0 0 1 -0.423001,0.61839 c -0.236895,0.01882 -0.497871,-0.03598 -0.707858,-0.148085 a 0.66333568,0.66333568 0 0 1 -0.195732,-0.470305 0.66333568,0.66333568 0 0 1 0.28143,-0.542291 c 0.09828,-0.04638 0.20455,-0.06964 0.311937,-0.07336 z" />
          <circle
             style="fill:#000000;fill-opacity:1;stroke:none;stroke-width:0.25;stroke-linecap:round;stroke-linejoin:round;stroke-dashoffset:1.15654;stroke-opacity:1;paint-order:markers fill stroke"
             id="path7-1-1"
             cx="17.772558"
             cy="19.711458"
             r="0.29850104" />
        </g>
        <g
           id="g8-5-7-7"
           transform="matrix(1.5075324,0,0,1.5075324,-9.1145643,-10.249156)">
          <path
             style="display:inline;fill:#e5e5e5;fill-opacity:1;stroke:none;stroke-width:0.25;stroke-linecap:round;stroke-linejoin:round;stroke-dashoffset:1.15654;stroke-opacity:1;paint-order:markers fill stroke"
             d="m 18.501841,19.693152 c -0.04482,-0.701265 -1.446451,-1.177184 -1.721592,-0.0124 0.241248,0.619011 1.612243,0.792301 1.721592,0.0124 z"
             id="path7-2-4-5-7" />
          <path
             id="path7-2-4-5-4-8"
             style="display:inline;fill:#808080;fill-opacity:1;stroke:none;stroke-width:0.25;stroke-linecap:round;stroke-linejoin:round;stroke-dashoffset:1.15654;stroke-opacity:1;paint-order:markers fill stroke"
             d="m 17.549461,18.976241 c 0.178977,-0.0062 0.361629,0.04181 0.518638,0.127175 a 0.66333568,0.66333568 0 0 1 0.214586,0.488473 0.66333568,0.66333568 0 0 1 -0.423001,0.61839 c -0.236895,0.01882 -0.497871,-0.03598 -0.707858,-0.148085 a 0.66333568,0.66333568 0 0 1 -0.195732,-0.470305 0.66333568,0.66333568 0 0 1 0.28143,-0.542291 c 0.09828,-0.04638 0.20455,-0.06964 0.311937,-0.07336 z" />
          <circle
             style="fill:#000000;fill-opacity:1;stroke:none;stroke-width:0.25;stroke-linecap:round;stroke-linejoin:round;stroke-dashoffset:1.15654;stroke-opacity:1;paint-order:markers fill stroke"
             id="path7-1-1-7"
             cx="17.772558"
             cy="19.711458"
             r="0.29850104" />
        </g>
        <g
           id="g20-2"
           transform="translate(0.0432104)">
          <path
             style="fill:none;fill-opacity:1;stroke:#0d0d0d;stroke-width:0.25;stroke-linecap:round;stroke-linejoin:round;stroke-dashoffset:1.15654;stroke-opacity:1;paint-order:markers fill stroke"
             d="m 20.246502,18.638709 c 0.454352,-0.594608 1.153712,-0.636215 1.74811,-0.555418 0.331002,0.04499 0.706741,0.224613 0.97637,0.309866"
             id="path16-5" />
          <path
             style="fill:none;fill-opacity:1;stroke:#0d0d0d;stroke-width:0.25;stroke-linecap:round;stroke-linejoin:round;stroke-dashoffset:1.15654;stroke-opacity:1;paint-order:markers fill stroke"
             d="m 18.797957,18.753488 c -0.454352,-0.594608 -1.153712,-0.636215 -1.74811,-0.555418 -0.331002,0.04499 -0.706741,0.224613 -0.97637,0.309866"
             id="path16-3-7" />
        </g>
      </g>
    </g>
  </g>
</svg>
